:FULLY-SPECIFIED
:FORCE-ALL-JOINTS-BE-3DOF
:DEGREES
2650
root -1.48519 15.3667 -28.6352 1248.12 -70.7748 -172.413
lfemur -50.3451 23.936 -8.698
ltibia 52.4954 0 0
lfoot 20.8833 15.2905 0
ltoes -18.7561 0 0
rfemur -35.8152 -17.0074 24.391
rtibia 67.0807 0 0
rfoot -23.4637 -4.62698 0
rtoes -6.00829 0 0
lowerback 18.8992 4.86879 -0.35836
upperback -0.195566 6.34078 0.321276
thorax -10.8877 2.98648 -1.20711
lowerneck -2.12079 9.54954 0.116482
upperneck 5.16575 12.6806 1.01116
head 1.90838 6.33788 0.579218
lclavicle 2.9156e-14 1.0729e-14 0
lhumerus 37.1774 -30.7705 54.542
lradius 115.868 0 0
lwrist -26.2145 0 0
lhand -38.1047 391.94 0
lfingers 7.12502 0 0
lthumb -2.60655 -672.692 0
rclavicle -9.58679e-15 2.99886e-15 0
rhumerus 6.4906 73.6307 -68.7594
rradius 104.946 0 0
rwrist -51.342 0 0
rhand -0.401896 -387.294 0
rfingers 7.12502 0 0
rthumb 21.738 305.455 0
2651
root -1.61232 15.3906 -28.607 1249.02 -69.6122 -173.636
lfemur -50.329 23.9849 -8.67906
ltibia 52.3368 0 0
lfoot 21.3395 15.353 0
ltoes -18.7364 0 0
rfemur -35.5283 -17.0412 24.1109
rtibia 67.064 0 0
rfoot -23.6775 -5.07897 0
rtoes -6.10862 0 0
lowerback 18.8266 5.12403 -0.153294
upperback -0.251411 6.70753 0.145999
thorax -10.8608 3.14407 -1.60937
lowerneck -2.0623 9.54913 0.433048
upperneck 5.42582 12.6648 1.00295
head 2.00497 6.334 0.535951
lclavicle 2.22791e-14 9.34693e-15 0
lhumerus 34.3658 -29.8606 55.9836
lradius 116.14 0 0
lwrist -25.7248 0 0
lhand -38.2653 391.721 0
lfingers 7.12502 0 0
lthumb -3.9637 -671.387 0
rclavicle -1.30397e-14 5.36818e-15 0
rhumerus 3.56957 72.7564 -70.4827
rradius 106.578 0 0
rwrist -54.9836 0 0
rhand 0.595529 -387.121 0
rfingers 7.12502 0 0
rthumb 22.5357 305.765 0
2652
root -1.74699 15.4007 -28.5767 1249.82 -68.4407 -174.71
lfemur -50.2823 24.1265 -8.62417
ltibia 52.3153 0 0
lfoot 21.623 15.3919 0
ltoes -18.6793 0 0
rfemur -35.1966 -17.0803 23.787
rtibia 67.0503 0 0
rfoot -23.9173 -5.5858 0
rtoes -6.24228 0 0
lowerback 18.6485 5.27942 -0.109976
upperback -0.296713 6.92052 0.086902
thorax -10.7953 3.24382 -1.74166
lowerneck -1.9493 9.66813 0.769626
upperneck 5.77136 12.8108 0.922342
head 2.12694 6.40913 0.47193
lclavicle 1.46754e-14 7.81886e-15 0
lhumerus 31.8103 -29.0335 57.2938
lradius 116.396 0 0
lwrist -25.2269 0 0
lhand -38.4363 391.487 0
lfingers 7.12502 0 0
lthumb -5.31217 -670.091 0
rclavicle -1.65508e-14 7.77744e-15 0
rhumerus 0.314426 71.782 -72.4031
rradius 108.116 0 0
rwrist -58.3913 0 0
rhand 1.47695 -386.967 0
rfingers 7.12502 0 0
rthumb 23.2944 306.059 0
2653
root -1.88081 15.4123 -28.5458 1250.22 -67.3189 -175.363
lfemur -50.2075 24.3535 -8.53621
ltibia 52.2538 0 0
lfoot 21.7205 15.4052 0
ltoes -18.5882 0 0
rfemur -34.8269 -17.1239 23.4261
rtibia 67.0401 0 0
rfoot -24.179 -6.13903 0
rtoes -6.40534 0 0
lowerback 18.4973 5.38331 0.153723
upperback -0.350577 7.11216 0.017496
thorax -10.7251 3.32156 -2.00236
lowerneck -2.08064 9.75007 1.1103
upperneck 6.21737 12.8958 0.995905
head 2.31642 6.45849 0.470434
lclavicle 6.50644e-15 6.17719e-15 0
lhumerus 29.5476 -28.3013 58.454
lradius 116.634 0 0
lwrist -24.7289 0 0
lhand -38.6162 391.241 0
lfingers 7.12502 0 0
lthumb -6.63456 -668.82 0
rclavicle -2.00619e-14 1.01867e-14 0
rhumerus -3.21409 70.7258 -74.4847
rradius 109.536 0 0
rwrist -61.5132 0 0
rhand 2.22871 -386.836 0
rfingers 7.12502 0 0
rthumb 24.0063 306.336 0
2654
root -2.01745 15.4186 -28.5148 1250.53 -66.2216 -175.877
lfemur -50.107 24.6584 -8.41804
ltibia 52.1563 0 0
lfoot 21.6576 15.328 0
ltoes -18.4662 0 0
rfemur -34.4262 -17.1711 23.0349
rtibia 67.0336 0 0
rfoot -24.4586 -6.73021 0
rtoes -6.5939 0 0
lowerback 18.2912 5.51299 0.443185
upperback -0.402093 7.35231 0.026626
thorax -10.6253 3.42507 -2.19786
lowerneck -1.96216 9.82146 1.05478
upperneck 6.48132 12.9939 0.9561
head 2.38215 6.50323 0.472659
lclavicle -2.06622e-15 4.45439e-15 0
lhumerus 27.6143 -27.6756 59.4452
lradius 116.85 0 0
lwrist -24.2392 0 0
lhand -38.8031 390.986 0
lfingers 7.12502 0 0
lthumb -7.91351 -667.591 0
rclavicle -2.35148e-14 1.2556e-14 0
rhumerus -6.95524 69.6059 -76.6918
rradius 110.81 0 0
rwrist -64.2974 0 0
rhand 2.83718 -386.73 0
rfingers 7.12502 0 0
rthumb 24.6637 306.591 0
2655
root -2.1604 15.41 -28.4822 1250.61 -65.1564 -176.115
lfemur -49.9832 25.0338 -8.27255
ltibia 52.0272 0 0
lfoot 21.4766 15.1059 0
ltoes -18.3167 0 0
rfemur -34.0013 -17.2211 22.6201
rtibia 67.0314 0 0
rfoot -24.7523 -7.35091 0
rtoes -6.80402 0 0
lowerback 17.9732 5.52267 0.717587
upperback -0.395081 7.44089 0.171991
thorax -10.4206 3.46586 -2.18055
lowerneck -2.01361 9.97896 0.936456
upperneck 6.84729 13.2177 0.779989
head 2.51869 6.6043 0.461187
lclavicle -1.08811e-14 2.68291e-15 0
lhumerus 26.0468 -27.1683 60.2489
lradius 117.042 0 0
lwrist -23.766 0 0
lhand -38.9953 390.724 0
lfingers 7.12502 0 0
lthumb -9.13162 -666.42 0
rclavicle -2.68513e-14 1.48455e-14 0
rhumerus -10.8483 68.4406 -78.9885
rradius 111.911 0 0
rwrist -66.6919 0 0
rhand 3.28869 -386.652 0
rfingers 7.12502 0 0
rthumb 25.2587 306.822 0
2656
root -2.29888 15.4092 -28.4506 1250.68 -64.124 -176.312
lfemur -49.8386 25.4723 -8.10261
ltibia 51.8706 0 0
lfoot 21.1895 14.7535 0
ltoes -18.1428 0 0
rfemur -33.5592 -17.2732 22.1884
rtibia 67.0807 0 0
rfoot -25.0559 -7.99271 0
rtoes -7.0318 0 0
lowerback 17.6746 5.64296 1.12687
upperback -0.44559 7.69285 0.207035
thorax -10.2516 3.57344 -2.40251
lowerneck -1.98806 10.1079 1.13313
upperneck 7.10067 13.3916 0.600947
head 2.6279 6.68828 0.391811
lclavicle -1.97768e-14 8.95194e-16 0
lhumerus 24.8819 -26.7913 60.8462
lradius 117.205 0 0
lwrist -23.3176 0 0
lhand -39.191 390.456 0
lfingers 7.12502 0 0
lthumb -10.2715 -665.324 0
rclavicle -3.00132e-14 1.70151e-14 0
rhumerus -14.8324 67.248 -81.3389
rradius 112.814 0 0
rwrist -68.6448 0 0
rhand 3.56961 -386.603 0
rfingers 7.12502 0 0
rthumb 25.7836 307.026 0
2657
root -2.442 15.3939 -28.4167 1250.65 -63.0705 -176.324
lfemur -49.6757 25.9665 -7.91109
ltibia 51.6908 0 0
lfoot 20.8079 14.2853 0
ltoes -17.9478 0 0
rfemur -33.1067 -17.3265 21.7467
rtibia 67.2236 0 0
rfoot -25.3655 -8.64716 0
rtoes -7.27329 0 0
lowerback 17.3624 5.70394 1.50417
upperback -0.506425 7.86757 0.340787
thorax -10.1055 3.6489 -2.47836
lowerneck -2.02749 10.2489 1.36032
upperneck 7.45255 13.5937 0.236371
head 2.80111 6.77997 0.270981
lclavicle -2.85917e-14 -8.76291e-16 0
lhumerus 24.1562 -26.5564 61.2183
lradius 117.338 0 0
lwrist -22.9021 0 0
lhand -39.3885 390.186 0
lfingers 7.12502 0 0
lthumb -11.3158 -664.32 0
rclavicle -3.29423e-14 1.90251e-14 0
rhumerus -18.8469 66.0463 -83.7073
rradius 113.492 0 0
rwrist -70.104 0 0
rhand 3.66628 -386.586 0
rfingers 7.12502 0 0
rthumb 26.2305 307.199 0
